# xmcd
#
# Track frame offsets: 
#        150
#        26176
#        49018
#        77550
#        104171
#        127081
#        160174
#        182153
#        209940
#        221477
#        236423
#
# Disc length: 3523 seconds
#
# Revision: 4
# Processed by: cddbd v1.5.2PL0 Copyright (c) Steve Scherf et al.
# Submitted via: ExactAudioCopy v0.99pb3
#
DISCID=a40dc10b
DTITLE=Golgotha - Elemental Changes
DYEAR=1998
DGENRE=Doom Metal
TTITLE0=Emotionless
TTITLE1=Dark Tears
TTITLE2=The Way of Confusion
TTITLE3=The Wood in me
TTITLE4=lifetrappers
TTITLE5=answers
TTITLE6=save me kiss me
TTITLE7=the proverb
TTITLE8=internal fight
TTITLE9=Love Gun
TTITLE10=Elemental Changes
EXTD=ID3G: 9
EXTT0=
EXTT1=
EXTT2=
EXTT3=
EXTT4=
EXTT5=
EXTT6=
EXTT7=
EXTT8=
EXTT9=
EXTT10=
PLAYORDER=
